<?xml version="1.0" encoding="utf-8"?>
<!-- Generator: Adobe Illustrator 21.1.0, SVG Export Plug-In . SVG Version: 6.00 Build 0)  -->
<svg version="1.1" id="レイヤー_1" xmlns="http://www.w3.org/2000/svg" xmlns:xlink="http://www.w3.org/1999/xlink" x="0px"
	 y="0px" viewBox="0 0 40 120" style="enable-background:new 0 0 40 120;" xml:space="preserve" width="40" height="120">
<style type="text/css">
	.st0{fill:#FFFFFF;stroke:#B6B6B6;stroke-miterlimit:10;}
	.st1{fill:#80DDE9;stroke:#00BCD4;stroke-miterlimit:10;}
	.st2{fill:#FFC864;stroke:#D99421;stroke-miterlimit:10;}
	.st3{fill:#D99421;}
</style>
<g>
	<path class="st0" d="M20.012,2.015c-0.314,0-0.607,0.158-0.78,0.42l-5.842,8.867l-10.227,2.82c-0.303,0.083-0.543,0.313-0.64,0.612
		c-0.097,0.299-0.038,0.626,0.158,0.872l6.616,8.293L8.818,34.492c-0.014,0.314,0.13,0.614,0.384,0.798
		c0.162,0.118,0.355,0.179,0.55,0.179c0.111,0,0.222-0.02,0.328-0.06l9.932-3.726l9.942,3.739c0.107,0.04,0.218,0.06,0.329,0.06
		c0.195,0,0.388-0.061,0.55-0.179c0.254-0.185,0.399-0.485,0.384-0.799l-0.489-10.606l6.633-8.302
		c0.196-0.246,0.256-0.573,0.159-0.872c-0.097-0.299-0.338-0.529-0.641-0.612l-10.244-2.811l-5.842-8.866
		C20.62,2.173,20.327,2.015,20.012,2.015L20.012,2.015z"/>
</g>
<g>
	<g>
		<path class="st1" d="M20.015,42.018c-0.314,0-0.608,0.158-0.78,0.42l-5.842,8.867l-10.227,2.82
			c-0.303,0.083-0.543,0.313-0.64,0.612c-0.097,0.299-0.038,0.626,0.158,0.872l6.616,8.293L8.821,74.494
			c-0.014,0.314,0.13,0.614,0.384,0.798c0.162,0.118,0.355,0.179,0.55,0.179c0.111,0,0.222-0.02,0.328-0.06l9.932-3.726l9.942,3.739
			c0.107,0.04,0.218,0.06,0.329,0.06c0.195,0,0.388-0.061,0.55-0.179c0.254-0.185,0.399-0.485,0.384-0.799L30.73,63.901l6.633-8.302
			c0.196-0.246,0.256-0.573,0.159-0.872c-0.097-0.299-0.338-0.529-0.641-0.612l-10.244-2.811l-5.842-8.866
			C20.622,42.176,20.329,42.018,20.015,42.018L20.015,42.018z"/>
	</g>
</g>
<g>
	<g>
		<g>
			<path class="st2" d="M20.036,82.061c-0.314,0-0.607,0.158-0.78,0.42l-5.842,8.867l-10.227,2.82
				c-0.303,0.083-0.543,0.313-0.64,0.612c-0.097,0.299-0.038,0.626,0.158,0.872l6.616,8.293l-0.479,10.593
				c-0.014,0.314,0.13,0.614,0.384,0.798c0.162,0.118,0.355,0.179,0.55,0.179c0.111,0,0.222-0.02,0.328-0.06l9.932-3.726
				l9.942,3.739c0.107,0.04,0.218,0.06,0.329,0.06c0.195,0,0.388-0.061,0.55-0.179c0.254-0.185,0.399-0.485,0.384-0.799
				l-0.489-10.606l6.633-8.302c0.196-0.246,0.256-0.573,0.159-0.872c-0.097-0.299-0.338-0.529-0.641-0.612l-10.244-2.811
				l-5.842-8.866C20.644,82.219,20.351,82.061,20.036,82.061L20.036,82.061z"/>
		</g>
	</g>
	<g>
		<path class="st3" d="M30.307,116.021c-0.173,0-0.342-0.031-0.503-0.092l-9.768-3.674l-9.759,3.661
			c-0.445,0.166-0.955,0.098-1.34-0.182c-0.388-0.283-0.608-0.738-0.587-1.218l1.492-0.225l10.105-3.79l9.541,3.517
			c0.139,0.052,0.299,0.03,0.416-0.056c0.121-0.088,0.188-0.229,0.181-0.377l-0.468-10.166l7.4-8.751l-0.884-1.237l0.899,0.253
			c0.464,0.127,0.83,0.477,0.979,0.936c0.15,0.457,0.059,0.955-0.243,1.332l-6.517,8.157l0.48,10.421
			c0.023,0.48-0.196,0.937-0.586,1.22C30.901,115.926,30.61,116.021,30.307,116.021z"/>
	</g>
</g>
</svg>
